<svg width="291" height="226" viewBox="0 0 291 226" fill="none" xmlns="http://www.w3.org/2000/svg">
    <path d="M223.968 19.5652C260.738 30.5987 281.602 69.351 270.569 106.121C259.535 142.892 220.782 163.756 184.012 152.722C151.876 143.079 131.89 112.263 134.729 80.1024C132.79 108.732 149.715 137.922 185.603 147.421C218.196 157.201 253.224 136.445 263.005 103.852C272.784 71.2585 255.557 32.6883 222.965 22.9082C190.542 13.1792 159.69 26.5864 144.552 50.0697C160.577 23.625 192.976 10.2658 223.968 19.5652Z" fill="#820F1C"/>
    <path d="M80.8965 210.404C36.2189 201.633 7.11006 158.306 15.8805 113.628C24.651 68.9503 67.9798 39.8416 112.657 48.6121C151.737 56.2837 178.905 90.3957 179.23 128.724C178.248 94.6718 154.892 62.1206 111.393 55.0536C71.7908 47.2794 32.8455 75.83 25.0713 115.432C17.2972 155.034 42.0918 198.568 81.6939 206.342C121.106 214.079 155.983 194.666 171.125 165.175C155.279 198.265 118.567 217.799 80.8965 210.404Z" fill="#820F1C"/>
</svg>
